<svg xmlns="http://www.w3.org/2000/svg" version="1.1" viewBox="0 0 32 32">
	<style>
		svg {
			transition: fill .1s ease-out, opacity .1s ease-out;
			fill: #fff;
		}
	</style>
	<g>
		<path d="M1240.95,151.085h-57.71v-1.771c0-1.577-1.29-2.866-2.867-2.866h-10.275c-1.577,0-2.868,1.289-2.868,2.866
		v1.771h-0.358c-3.153,0-5.734,2.581-5.734,5.735v53.051c0,3.153,2.581,5.734,5.734,5.734h74.079c3.154,0,5.735-2.581,5.735-5.734
		V156.82C1246.686,153.666,1244.104,151.085,1240.95,151.085 M1203.91,209.512c-14.451,0-26.166-11.715-26.166-26.166
		c0-14.452,11.715-26.167,26.166-26.167c14.452,0,26.168,11.715,26.168,26.167C1230.078,197.797,1218.362,209.512,1203.91,209.512
		 M1236.898,164.369c-2.184,0-3.953-1.771-3.953-3.954s1.77-3.953,3.953-3.953s3.953,1.77,3.953,3.953
		S1239.082,164.369,1236.898,164.369"/>
		<path d="M1204.248,162.555c-11.482,0-20.791,9.309-20.791,20.791c0,11.481,9.309,20.789,20.791,20.789
		c11.481,0,20.789-9.308,20.789-20.789C1225.037,171.863,1215.729,162.555,1204.248,162.555 M1204.248,192.852
		c-5.25,0-9.506-4.256-9.506-9.506s4.256-9.506,9.506-9.506s9.504,4.256,9.504,9.506S1209.498,192.852,1204.248,192.852"/>
		<path d="M28.988,4.5H8.751V3.879c0-0.553-0.452-1.005-1.005-1.005H4.143c-0.553,0-1.006,0.452-1.006,1.005V4.5H3.011
		C1.905,4.5,1,5.405,1,6.512v18.604c0,1.105,0.905,2.011,2.011,2.011h25.977c1.106,0,2.012-0.905,2.012-2.011V6.512
		C31,5.405,30.095,4.5,28.988,4.5 M16,24.989c-5.068,0-9.176-4.108-9.176-9.176c0-5.068,4.108-9.176,9.176-9.176
		c5.067,0,9.176,4.107,9.176,9.176C25.176,20.881,21.067,24.989,16,24.989 M27.568,9.158c-0.767,0-1.387-0.62-1.387-1.386
		s0.62-1.387,1.387-1.387c0.766,0,1.386,0.621,1.386,1.387S28.334,9.158,27.568,9.158"/>
		<path d="M16.118,8.522c-4.027,0-7.291,3.265-7.291,7.291s3.264,7.29,7.291,7.29c4.026,0,7.29-3.264,7.29-7.29
		S20.145,8.522,16.118,8.522 M16.118,19.146c-1.841,0-3.333-1.492-3.333-3.333s1.493-3.334,3.333-3.334s3.333,1.493,3.333,3.334
		S17.959,19.146,16.118,19.146"/>
	</g>
</svg>