<svg xmlns="http://www.w3.org/2000/svg" version="1.1" viewBox="0 0 100 32">
	<style>
		svg {
			transition: fill .1s ease-out, opacity .1s ease-out;
			fill: #fff;
		}
	</style>
	<g>
		<path d="M38.406,27.663c-3.721-2.299-8.772-2.695-16.917-0.538c-8.684,1.958-11.579,3.207-15.381,0.696
		c-1.461-1.234-1.984-3.227-1.592-6.087c0.906-4.661,3.356-9.151,7.712-14.133c2.429-2.594,4.684-4.816,7.66-5.71
		c2.279-0.557,2.067,1.16,1.792,1.4c-0.291,0.003-0.779,0.048-1.158,0.285c-0.307,0.225-1.15,0.959-1.194,1.948
		c-0.067,1.517,1.571,1.2,2.28,0.369c0.759-0.937,1.884-2.736,0.999-4.4c-0.37-0.599-1.01-1.004-1.808-1.148
		c-2.724-0.156-5.265,1.091-7.605,2.463c-5.124,3.407-9.223,8.126-11.54,13.292c-1.337,3.113-2.55,7.585-0.734,11.213
		c1.401,2.525,4.312,3.859,7.785,3.576c2.435-0.237,5.381-0.995,7.361-1.45c1.982-0.455,12.122-3.791,15.453,2.013
		c0,0,1.107-2.056,3.877-2.1c2.275-0.196,5.559,0.635,7.95,2.314C42.548,30.513,40.292,28.826,38.406,27.663" />
		<path d="M22.524,8.184c-1.897-1.187-5.709,1.084-8.761,4.99c-2.793,3.501-4,7.573-2.686,9.455c1.952,2.213,5.573-1.003,7.113-2.731
		l0.199-0.201c1.048-1.072,1.858-2.365,2.642-3.617c0,0,0.72-1.129,0.756-1.186c0.446-0.076,0.979-0.201,1.583-0.366
		c-0.007,0.018-2.034,3.208-2.074,5.561c-0.01,0.516,0.017,2.615,2.106,3.235c2.786,0.445,5.011-1.617,6.972-3.456
		c0,0,0.336-0.31,0.522-0.483c-0.047,0.182-0.107,0.424-0.107,0.424c-0.815,2.717,0.282,3.288,0.971,3.497
		c2.081,0.574,4.562-2.312,4.569-2.313c-0.064,0.911-0.252,1.666,0.752,2.263c0.945,0.329,1.901-0.154,2.63-0.612
		c2.621-1.775,4.734-4.558,6.44-6.914h-1.086c-0.016,0.013-2.688,3.691-4.424,4.496c0,0.001-0.317,0.143-0.501,0.024
		c-0.223-0.183-0.135-0.598,0.005-0.863c0.006-0.018,6.699-11.153,6.699-11.153h-3.159c0,0-0.343,0.556-0.374,0.598
		c-0.022-0.021-0.073-0.104-0.106-0.141c-1.959-2.596-6.392,1.394-9.73,6.016c-1.282,1.776-2.922,3.78-4.616,5.229
		c0,0.002-2.514,2.207-3.588,0.618c-0.392-0.664-0.273-1.632-0.051-2.272c1.252-3.412,3.406-6.5,5.855-8.364
		c0.695-0.512,1.448-0.662,1.819-0.447c0.357,0.208,0.413,0.706,0.188,1.046c-0.571-0.022-1.028,0.146-1.401,0.515
		c-0.731,0.739-0.985,1.449-0.754,2.114c1.132,1.535,3.39-1.511,3.28-3.361c-0.041-0.667-0.41-1.297-0.963-1.604
		c-0.827-0.476-2.087-0.348-2.901,0.027c-1.09,0.395-2.814,1.765-3.825,2.833c-1.266,1.34-3.443,2.829-4.125,2.664
		C22.618,13.13,24.455,9.537,22.524,8.184 M37.759,13.507c0.613-0.812,2.403-2.992,2.839-3.358c1.467-1.233,2.055-0.695,2.104-0.313
		c-1.368,2.352-2.983,5.033-4.502,7.452c0.001-0.003-0.478,0.689-0.478,0.689c-0.67,0.987-1.347,1.824-2.449,2.412
		c-0.155,0.043-0.416,0.058-0.588-0.058c-0.205-0.132-0.288-0.349-0.268-0.583C34.486,19.003,35.287,16.698,37.759,13.507
		M20.567,14.923c0,0-0.028,0.069-0.04,0.099c-0.005,0.006-1.377,2.144-1.377,2.144c-0.83,1.063-1.866,2.393-3.161,3.036
		c-0.384,0.118-0.913,0.196-1.185-0.131c-0.573-0.65-0.277-1.562-0.038-2.294l0.086-0.265c0.688-1.792,1.781-3.365,2.84-4.822
		c0.014-0.012,0.042-0.021,0.054-0.019c0.002,0,0.006,0.008,0.008,0.021c0.667,1.23,1.919,1.794,2.854,2.055
		c0.005,0.007,0.01,0.017,0.01,0.032C20.62,14.804,20.604,14.844,20.567,14.923 M21.869,12.393c-0.005,0.01-0.612,1.346-0.612,1.346
		c-0.086,0.065-0.225,0.032-0.383-0.007l-0.272-0.042c-0.855-0.251-1.497-0.793-1.697-1.443c-0.274-1.261,0.851-2.245,1.348-2.608
		c0.476-0.315,1.214-0.477,1.645-0.153c0.263,0.299,0.363,0.681,0.363,1.101C22.26,11.155,22.077,11.794,21.869,12.393" />
		<polygon points="52.042,8.229 49.097,8.229 47.402,10.973 50.348,10.973 	" />
		<path d="M87.789,27.937c-0.323,0.21-0.776,0.032-0.606-0.452c0.422-1.217,2.103-3.74,2.103-3.74l4.676-7.962h-3.207
		c-0.149,0.266-0.476,0.811-0.476,0.811c-0.147-0.236-0.593-0.758-0.773-0.868c-0.782-0.471-1.932-0.246-2.724,0.183
		c-3.44,1.923-5.953,5.734-7.935,8.703c0,0-2.085,3.299-3.245,3.549c-0.901,0.064-0.809-1.097-0.77-1.372
		c0.348-1.957,1.161-3.824,1.977-5.515c1.664-1.098,3.563-2.547,5.288-4.126c3.542-3.243,6.557-6.885,7.262-8.004
		c-0.148,0.025-0.593,0.091-1.114,0.104c-2.919,3.839-8.673,9.283-10.435,10.099c0.792-1.82,5.903-10.505,10.253-14.665l0.686-0.632
		c1.059-0.988,2.155-2.007,3.011-2.168c0.09-0.016,0.206-0.008,0.305,0.198c0.039,0.772-0.26,1.337-0.604,1.992L90.98,5.015
		c0,0,0.682-0.125,1.129-0.269c0.519-0.938,1.096-1.988,0.884-3.242c-0.069-0.396-0.374-0.701-0.773-0.776
		c-1.3-0.233-2.715,0.686-3.851,1.425l-0.048,0.029c-5.85,4.382-10.79,10.706-15.108,19.335c-0.313,0.23-1.522,0.495-1.729,0.366
		c0.429-0.834,0.964-1.971,1.232-3.196c0.047-0.347,0.089-0.704,0.089-1.055c0-0.75-0.189-1.465-0.892-1.95
		c-0.831-0.396-1.853-0.214-2.538,0.087c-3.093,1.229-5.399,4.252-7.064,6.748c-0.893,1.58-1.785,3.28-2.034,5.222
		c-0.176,1.527,0.181,2.508,1.084,3c0.932,0.447,2.101-0.021,2.563-0.243c3.129-1.579,5.313-4.741,7.037-7.634
		c0.069-0.007,1.008-0.026,1.719-0.209c0.011,0.006,0.015,0.009,0.029,0.016c-0.042,0.123-0.404,1.182-0.404,1.182
		c-1.094,3.059-1.6,5.143-0.568,6.377c1.475,1.744,3.915-0.061,5.899-2.444c-0.427,2.855,1.119,3.307,2.299,3.089
		c1.354-0.353,2.86-1.734,3.56-2.443c-0.224,0.831-0.161,2.312,1.068,2.462c0.845,0.15,1.474-0.255,2.207-0.636
		c2.62-1.361,5.759-5.942,6.574-7.2h-1.068C91.116,24.687,89.643,26.892,87.789,27.937 M64.259,27.606
		c-0.165-0.242-0.22-0.513-0.225-0.795c-0.032-1.716,1.896-4.764,3.26-6.477h0.002c0.571,1.275,1.863,1.981,2.645,2.305
		C68.971,24.701,65.646,29.143,64.259,27.606 M70.485,21.73c-0.092,0.056-1.722-0.468-2.034-1.911
		c-0.268-1.24,0.626-2.215,1.493-2.702c0.37-0.28,0.931-0.377,1.339-0.24c0.384,0.25,0.487,0.688,0.487,1.155
		c0,0.288-0.04,0.587-0.076,0.862c0,0-0.005,0.049-0.008,0.063C71.415,19.923,70.998,20.882,70.485,21.73 M83.563,27.054
		c-0.001,0.001-0.311,0.258-0.311,0.258c-0.438,0.382-0.893,0.778-1.436,0.576c-0.153-0.052-0.259-0.237-0.286-0.394
		c-0.022-1.072,0.484-2.076,0.977-3.047l0.123-0.247c1.415-2.266,3.058-4.924,5.472-6.77c0.404-0.281,0.848-0.515,1.313-0.332
		c0.108,0.096,0.232,0.265,0.232,0.431c0,0.054-0.048,0.189-0.077,0.238c-0.674,1.036-1.317,2.127-1.938,3.179
		C86.41,23.021,85.146,25.168,83.563,27.054" />
		<path d="M83.882,4.114l-0.071-0.042c-1.454-0.846-3.095-1.657-4.609-2.447c-3.433-1.792-6.23-1.169-7.653-0.678
		c-0.558,0.193-1.071,0.358-1.071,0.358c-1.055-1.105-2.788-0.995-4.062-0.698c-4.591,1.258-8.854,4.328-13.422,9.661
		c-3.362,4.182-5.441,7.789-6.551,11.351c-0.856,2.396-1.117,5.923,0.972,8.014c1.775,1.777,4.132,1.393,5.797,0.756
		c3.604-1.699,6.84-5.357,8.455-9.574c0.387-1.244,0.822-3.014,0.151-4.361c-0.305-0.632-1.028-1.032-1.8-0.994
		c-2.503,0.225-4.95,2.194-6.238,5.019c-0.675,1.454-1.041,2.651-1.283,4.555c0.781-0.856,2.365-2.26,4.168-3.035
		c0,0,0.245-1.822,1.494-3.46c0.473-0.673,1.423-1.754,2.484-1.469c0.93,0.299,0.602,2.765-0.633,5.141
		c-0.913,1.757-2.309,3.499-3.725,4.709c-1.25,1.016-3.1,2.243-4.718,1.294c-1.019-0.574-1.541-1.78-1.432-3.341
		c0.488-4.423,2.593-8.187,5.6-12.471c3.105-3.99,6.523-8.069,11.136-10.25c0.938-0.454,1.81-0.557,2.562-0.285
		c-0.002,0.001-4.326,2.28-6.389,6.488c-0.522,1.065-1.255,2.514-0.517,3.792c0.382,0.664,1.063,0.716,1.612,0.687
		c2.528-0.567,4.162-2.819,5.494-4.886c0.774-1.574,1.461-3.131,1.461-4.862c0-0.211-0.01-0.483-0.03-0.7
		c1.21-0.609,3.683,0.474,3.683,0.474c1.761,0.553,4.93,2.876,6.607,3.772C82.527,5.299,83.571,4.392,83.882,4.114 M70.103,3.26
		c-0.477,5.234-4.73,8.306-5.78,8.548c-0.641,0.126-1.728-0.145-0.755-2.342c1.432-2.959,3.872-5.471,6.491-6.755
		C70.121,2.931,70.12,3.066,70.103,3.26" />
		<path d="M95.331,3.924c-2.156,1.171-4.08,1.955-6.733,1.804c-0.32,0.358-1.481,1.68-2.146,2.743
		c3.841,0.627,7.486-1.434,9.745-3.405C98.71,2.978,100,0.343,100,0.343S98.114,2.415,95.331,3.924" />
		<path d="M93.5,28.247c-0.02-1.213,0.878-2.135,2.05-2.154c1.155-0.02,2.082,0.878,2.099,2.091c0.021,1.225-0.873,2.149-2.032,2.166
		C94.448,30.37,93.52,29.478,93.5,28.247 M95.626,30.776c1.39-0.024,2.562-1.122,2.539-2.601c-0.025-1.47-1.229-2.535-2.621-2.511
		c-1.409,0.021-2.581,1.124-2.557,2.589C93.012,29.735,94.216,30.795,95.626,30.776 M95.044,28.425l0.515-0.009l0.799,1.268
		l0.499-0.011l-0.859-1.281c0.432-0.063,0.758-0.297,0.753-0.826c-0.012-0.582-0.359-0.831-1.056-0.818l-1.121,0.018l0.047,2.944
		l0.442-0.008L95.044,28.425z M95.039,28.048l-0.013-0.912l0.606-0.013c0.313-0.007,0.646,0.058,0.649,0.423
		c0.008,0.454-0.33,0.483-0.712,0.493L95.039,28.048z" />
	</g>
</svg>